<svg width="580" height="368" viewBox="0 0 580 368" fill="none" xmlns="http://www.w3.org/2000/svg">
<path d="M1 20.6413C1 5.3174 17.1 -4.64793 30.7966 2.20067L148.972 61.3502V200.168C148.972 219.674 159.992 237.527 177.417 246.248L284.068 299.63V340.352C284.068 355.675 267.968 365.641 254.271 358.779L29.4447 246.248C12.0201 237.527 1 219.688 1 200.168V20.6413ZM148.972 20.6413C148.972 5.3174 165.072 -4.64793 178.769 2.21435L296.945 61.3638V200.182C296.945 219.688 307.965 237.541 325.39 246.262L432.041 299.643V340.366C432.041 355.689 415.94 365.654 402.244 358.792L284.068 299.643V160.826C284.068 141.306 273.048 123.466 255.623 114.744L148.972 61.3638V20.6413ZM296.931 20.6413C296.931 5.3174 313.032 -4.64793 326.728 2.21435L551.555 114.744C568.993 123.466 580 141.306 580 160.826V340.366C580 355.689 563.899 365.654 550.203 358.792L432.027 299.643V160.826C432.027 141.306 421.007 123.466 403.582 114.744L296.931 61.3638V20.6413Z" fill="#121212"/>
</svg>